<svg width="500" height="500" viewBox="0 0 500 500" fill="none" xmlns="http://www.w3.org/2000/svg">
<path d="M356.586 21.8555L344.454 21.4095L0 0L29.4629 466.548L31.1956 498.662L194.108 489.295L490.034 471.9L496.967 152.542L500 31.2221V30.7761L356.586 21.8555Z" fill="#FF8C00"/>
<path d="M500 31.222C466.205 47.2791 424.61 71.8108 376.517 108.385C376.517 108.385 404.246 97.2345 431.975 90.0981C431.975 90.0981 445.407 83.8536 296.794 219.001C296.794 219.001 304.159 211.864 348.787 214.987C348.787 214.987 326.69 230.598 282.062 277.431C280.762 276.539 279.463 275.201 278.163 274.755C271.664 271.632 264.731 269.848 257.366 270.294C250.433 270.74 243.501 272.971 237.002 276.985L233.536 279.215L233.969 276.539C234.835 264.942 231.369 254.237 224.437 245.763C222.704 243.533 220.537 241.302 218.371 239.518C236.569 195.361 277.73 122.658 361.785 82.5155C361.785 82.5155 303.293 90.5441 286.395 113.738C286.395 113.738 311.525 61.1061 357.019 22.3014L344.887 21.4094C301.993 49.0632 248.7 97.2345 213.171 178.412C213.171 178.412 250 131.133 262.998 132.917C262.998 132.917 227.47 185.103 212.305 235.95C207.106 233.274 201.473 231.936 195.84 231.49H195.407C193.241 231.49 190.641 231.49 188.475 231.49C186.309 231.49 183.709 231.936 181.543 232.828C165.511 236.842 152.946 250.223 150.346 267.618C150.346 268.51 150.347 269.402 149.913 270.294V272.524C142.114 266.28 132.583 263.158 122.617 263.158C122.617 263.158 109.619 263.158 102.686 268.064C101.386 268.956 100.087 269.402 99.2202 270.294C84.9221 280.553 74.5235 300.624 81.8892 324.71L96.187 363.069L29.0293 467.44L31.1957 500L194.108 490.633L218.371 442.016H224.437C238.302 441.57 260.832 438.002 274.264 433.988C288.995 429.527 299.393 417.038 302.86 402.319C303.293 400.535 303.293 398.305 303.726 396.075C329.289 386.708 350.953 382.694 350.953 382.694C341.421 389.83 330.156 405.442 330.156 405.442C380.416 373.327 486.135 398.305 486.135 398.305C421.577 365.745 389.515 367.975 389.515 367.975C408.146 355.04 454.506 352.364 454.506 352.364C383.016 339.429 331.023 366.191 303.293 386.262C303.293 385.37 303.293 384.478 302.86 383.586L302.427 382.248C300.693 373.327 295.927 364.853 289.428 359.054C287.262 357.27 284.662 355.486 282.062 354.148C281.196 353.702 280.762 353.256 279.896 353.256L281.629 352.364C288.995 347.458 294.628 340.767 298.094 332.739C301.993 323.372 302.426 312.221 299.393 301.962C298.527 298.394 296.794 295.718 295.494 293.042C353.119 252.899 431.109 206.066 490.901 200.268C490.901 200.268 469.237 186.887 396.88 184.657C396.88 184.657 426.777 161.463 497.4 154.326L500 31.222Z" fill="white"/>
</svg>
