<svg width="33" height="32" viewBox="0 0 33 32" fill="none" xmlns="http://www.w3.org/2000/svg">
<path d="M32.0026 17.3034C31.8567 17.5761 31.8932 17.8762 31.8476 18.1672C31.4464 21.1223 30.2699 23.7228 28.3913 26.0324C26.4672 28.3965 24.0596 30.0604 21.1779 31.0515C20.4757 31.2971 19.9924 30.9515 19.9924 30.215C19.9833 28.8238 19.9924 27.4326 19.9924 26.0415C19.9924 25.2049 19.9012 24.3866 19.4543 23.641C19.3175 23.4137 19.1443 23.2136 18.9163 22.9863C19.7553 22.8772 20.5487 22.7772 21.3056 22.5317C22.7464 22.0679 24.0505 21.3769 24.926 20.0857C25.6373 19.0401 25.9747 17.858 26.1206 16.6214C26.2392 15.603 26.2756 14.5756 26.0294 13.5572C25.8014 12.6115 25.3728 11.7659 24.7345 11.0385C24.5977 10.8839 24.5886 10.7566 24.6524 10.5748C25.1084 9.2654 24.9169 7.98333 24.4518 6.71035C24.4062 6.58305 24.315 6.57396 24.2055 6.56487C23.6401 6.49213 23.1203 6.67398 22.6005 6.87402C21.7707 7.19226 20.9864 7.59234 20.2568 8.08335C20.0744 8.21065 19.9103 8.21974 19.7006 8.16519C17.2383 7.54688 14.7761 7.53779 12.323 8.16519C12.0858 8.22884 11.9126 8.19246 11.712 8.06517C10.7271 7.41049 9.6692 6.91948 8.52016 6.62852C7.71765 6.42848 7.57174 6.5194 7.34376 7.31047C7.02458 8.43797 6.96986 9.55637 7.38023 10.6748C7.43495 10.8203 7.38935 10.9021 7.29816 11.0021C6.20383 12.2478 5.75698 13.7117 5.79346 15.3575C5.82994 16.9033 6.10352 18.3854 6.86043 19.7493C7.48055 20.8586 8.43809 21.5679 9.55977 22.1043C10.6541 22.6317 11.8305 22.8317 13.0616 22.9863C12.7151 23.3682 12.4141 23.7683 12.2682 24.2502C12.2226 24.4048 12.1406 24.5684 12.1406 24.723C12.1314 25.0685 11.9491 25.2049 11.6481 25.2868C10.6359 25.5596 9.63273 25.7414 8.66607 25.1504C8.1645 24.8503 7.79061 24.423 7.49879 23.9229C7.0337 23.1318 6.38622 22.568 5.51076 22.268C5.2007 22.1589 4.88152 22.1225 4.56234 22.1862C4.22492 22.2589 4.18844 22.368 4.37083 22.659C4.48938 22.8408 4.63529 22.9863 4.81768 23.0863C5.66579 23.5592 6.13088 24.332 6.51389 25.1777C6.74188 25.6778 6.9425 26.1869 7.36199 26.5688C8.02771 27.169 8.83934 27.3781 9.70568 27.4599C10.4079 27.5236 11.101 27.5236 11.7849 27.3872C11.9855 27.3508 12.0311 27.3963 12.0311 27.5963C12.0311 28.4601 12.0494 29.3239 12.0585 30.1786C12.0585 30.9424 11.5569 31.288 10.8274 31.0425C7.01546 29.7331 4.13373 27.3054 2.11834 23.841C0.358291 20.8404 -0.307426 17.5852 0.130305 14.1482C0.914574 8.0197 4.24316 3.72794 9.86071 1.21835C12.3321 0.118131 14.9585 -0.172835 17.6487 0.0908534C21.7889 0.509118 25.236 2.30948 27.9901 5.38281C30.0693 7.70146 31.346 10.4202 31.8202 13.5117C31.8841 13.9209 31.8567 14.3482 32.0026 14.7483C32.0026 14.8756 32.0026 14.9938 32.0026 15.1211C31.9662 15.1575 31.9753 15.2029 31.9662 15.2484C31.9662 15.2939 31.957 15.3393 32.0026 15.3757C32.0026 15.7121 32.0026 16.0395 32.0026 16.3759C31.957 16.4214 31.9753 16.4759 31.9662 16.5305C31.9662 16.585 31.9662 16.6396 31.9662 16.6942C31.9662 16.7487 31.9662 16.8033 31.9662 16.8578C31.9662 16.9124 31.9479 16.9669 32.0026 17.0124C32.0026 17.0942 32.0026 17.2033 32.0026 17.3034Z" fill="black"/>
</svg>
