<svg width="32" height="32" viewBox="0 0 32 32" fill="none" xmlns="http://www.w3.org/2000/svg">
<path fill-rule="evenodd" clip-rule="evenodd" d="M7.11909 4.38142C5.59956 4.38142 4.36332 5.60928 4.36332 7.11851C4.36332 8.62872 5.59956 9.85736 7.11909 9.85736C8.63565 9.85736 9.86946 8.62872 9.86946 7.11851C9.86946 5.60928 8.63565 4.38142 7.11909 4.38142ZM4.7392 11.9317V27.119H9.48935L9.49115 11.9317H4.7392ZM12.4701 11.9304V27.1176L17.2094 27.1194L17.2113 19.6045C17.2113 17.6757 17.5491 15.704 20.0551 15.704C22.523 15.704 22.523 18.0308 22.523 19.7298V27.1176L27.2677 27.1158V18.7883C27.2677 15.0302 26.578 11.5527 21.5744 11.5527C19.2243 11.5527 17.6864 12.8737 17.0834 14.0051H17.0168L17.0169 11.9304H12.4701ZM29.6313 31.8245H2.35977C1.05859 31.8245 0 30.7942 0 29.5279V2.29492C0 1.02949 1.05859 0 2.35977 0H29.6313C30.9374 0 32 1.02949 32 2.29492V29.5279C32 30.7942 30.9374 31.8245 29.6313 31.8245Z" fill="black"/>
</svg>
