<svg width="493" height="113" viewBox="0 0 493 113" fill="none" xmlns="http://www.w3.org/2000/svg">
<path d="M138.98 77V35H147.02L171.8 65.24H167.9V35H177.5V77H169.52L144.68 46.76H148.58V77H138.98Z" fill="#252525"/>
<path d="M202.977 77V70.7L202.377 69.32V58.04C202.377 56.04 201.757 54.48 200.517 53.36C199.317 52.24 197.457 51.68 194.937 51.68C193.217 51.68 191.517 51.96 189.837 52.52C188.197 53.04 186.797 53.76 185.637 54.68L182.277 48.14C184.037 46.9 186.157 45.94 188.637 45.26C191.117 44.58 193.637 44.24 196.197 44.24C201.117 44.24 204.937 45.4 207.657 47.72C210.377 50.04 211.737 53.66 211.737 58.58V77H202.977ZM193.137 77.48C190.617 77.48 188.457 77.06 186.657 76.22C184.857 75.34 183.477 74.16 182.517 72.68C181.557 71.2 181.077 69.54 181.077 67.7C181.077 65.78 181.537 64.1 182.457 62.66C183.417 61.22 184.917 60.1 186.957 59.3C188.997 58.46 191.657 58.04 194.937 58.04H203.517V63.5H195.957C193.757 63.5 192.237 63.86 191.397 64.58C190.597 65.3 190.197 66.2 190.197 67.28C190.197 68.48 190.657 69.44 191.577 70.16C192.537 70.84 193.837 71.18 195.477 71.18C197.037 71.18 198.437 70.82 199.677 70.1C200.917 69.34 201.817 68.24 202.377 66.8L203.817 71.12C203.137 73.2 201.897 74.78 200.097 75.86C198.297 76.94 195.977 77.48 193.137 77.48Z" fill="#252525"/>
<path d="M230.228 77.48C227.548 77.48 225.148 76.96 223.028 75.92C220.948 74.88 219.328 73.3 218.168 71.18C217.008 69.02 216.428 66.28 216.428 62.96V44.72H225.788V61.58C225.788 64.26 226.348 66.24 227.468 67.52C228.628 68.76 230.248 69.38 232.328 69.38C233.768 69.38 235.048 69.08 236.168 68.48C237.288 67.84 238.168 66.88 238.808 65.6C239.448 64.28 239.768 62.64 239.768 60.68V44.72H249.128V77H240.248V68.12L241.868 70.7C240.788 72.94 239.188 74.64 237.068 75.8C234.988 76.92 232.708 77.48 230.228 77.48Z" fill="#252525"/>
<path d="M269.38 89.12C266.34 89.12 263.4 88.74 260.56 87.98C257.76 87.26 255.42 86.16 253.54 84.68L257.26 77.96C258.62 79.08 260.34 79.96 262.42 80.6C264.54 81.28 266.62 81.62 268.66 81.62C271.98 81.62 274.38 80.88 275.86 79.4C277.38 77.92 278.14 75.72 278.14 72.8V67.94L278.74 59.84L278.62 51.68V44.72H287.5V71.6C287.5 77.6 285.94 82.02 282.82 84.86C279.7 87.7 275.22 89.12 269.38 89.12ZM267.94 75.44C264.94 75.44 262.22 74.8 259.78 73.52C257.38 72.2 255.44 70.38 253.96 68.06C252.52 65.7 251.8 62.96 251.8 59.84C251.8 56.68 252.52 53.94 253.96 51.62C255.44 49.26 257.38 47.44 259.78 46.16C262.22 44.88 264.94 44.24 267.94 44.24C270.66 44.24 273.06 44.8 275.14 45.92C277.22 47 278.84 48.7 280 51.02C281.16 53.3 281.74 56.24 281.74 59.84C281.74 63.4 281.16 66.34 280 68.66C278.84 70.94 277.22 72.64 275.14 73.76C273.06 74.88 270.66 75.44 267.94 75.44ZM269.8 67.76C271.44 67.76 272.9 67.44 274.18 66.8C275.46 66.12 276.46 65.18 277.18 63.98C277.9 62.78 278.26 61.4 278.26 59.84C278.26 58.24 277.9 56.86 277.18 55.7C276.46 54.5 275.46 53.58 274.18 52.94C272.9 52.26 271.44 51.92 269.8 51.92C268.16 51.92 266.7 52.26 265.42 52.94C264.14 53.58 263.12 54.5 262.36 55.7C261.64 56.86 261.28 58.24 261.28 59.84C261.28 61.4 261.64 62.78 262.36 63.98C263.12 65.18 264.14 66.12 265.42 66.8C266.7 67.44 268.16 67.76 269.8 67.76Z" fill="#252525"/>
<path d="M312.231 44.24C314.791 44.24 317.071 44.76 319.071 45.8C321.111 46.8 322.711 48.36 323.871 50.48C325.031 52.56 325.611 55.24 325.611 58.52V77H316.251V59.96C316.251 57.36 315.671 55.44 314.511 54.2C313.391 52.96 311.791 52.34 309.711 52.34C308.231 52.34 306.891 52.66 305.691 53.3C304.531 53.9 303.611 54.84 302.931 56.12C302.291 57.4 301.971 59.04 301.971 61.04V77H292.611V32.48H301.971V53.66L299.871 50.96C301.031 48.8 302.691 47.14 304.851 45.98C307.011 44.82 309.471 44.24 312.231 44.24Z" fill="#252525"/>
<path d="M343.696 77.48C339.896 77.48 336.936 76.52 334.816 74.6C332.696 72.64 331.636 69.74 331.636 65.9V37.58H340.996V65.78C340.996 67.14 341.356 68.2 342.076 68.96C342.796 69.68 343.776 70.04 345.016 70.04C346.496 70.04 347.756 69.64 348.796 68.84L351.316 75.44C350.356 76.12 349.196 76.64 347.836 77C346.516 77.32 345.136 77.48 343.696 77.48ZM326.656 52.64V45.44H349.036V52.64H326.656Z" fill="#252525"/>
<path d="M356.464 89.12C354.784 89.12 353.124 88.86 351.484 88.34C349.844 87.82 348.504 87.1 347.464 86.18L350.884 79.52C351.604 80.16 352.424 80.66 353.344 81.02C354.304 81.38 355.244 81.56 356.164 81.56C357.484 81.56 358.524 81.24 359.284 80.6C360.084 80 360.804 78.98 361.444 77.54L363.124 73.58L363.844 72.56L375.424 44.72H384.424L369.844 78.98C368.804 81.58 367.604 83.62 366.244 85.1C364.924 86.58 363.444 87.62 361.804 88.22C360.204 88.82 358.424 89.12 356.464 89.12ZM361.984 78.26L347.584 44.72H357.244L368.404 71.72L361.984 78.26Z" fill="#252525"/>
<path d="M418.796 77.72C415.556 77.72 412.536 77.2 409.736 76.16C406.976 75.08 404.576 73.56 402.536 71.6C400.496 69.64 398.896 67.34 397.736 64.7C396.616 62.06 396.056 59.16 396.056 56C396.056 52.84 396.616 49.94 397.736 47.3C398.896 44.66 400.496 42.36 402.536 40.4C404.616 38.44 407.036 36.94 409.796 35.9C412.556 34.82 415.576 34.28 418.856 34.28C422.496 34.28 425.776 34.92 428.696 36.2C431.656 37.44 434.136 39.28 436.136 41.72L429.896 47.48C428.456 45.84 426.856 44.62 425.096 43.82C423.336 42.98 421.416 42.56 419.336 42.56C417.376 42.56 415.576 42.88 413.936 43.52C412.296 44.16 410.876 45.08 409.676 46.28C408.476 47.48 407.536 48.9 406.856 50.54C406.216 52.18 405.896 54 405.896 56C405.896 58 406.216 59.82 406.856 61.46C407.536 63.1 408.476 64.52 409.676 65.72C410.876 66.92 412.296 67.84 413.936 68.48C415.576 69.12 417.376 69.44 419.336 69.44C421.416 69.44 423.336 69.04 425.096 68.24C426.856 67.4 428.456 66.14 429.896 64.46L436.136 70.22C434.136 72.66 431.656 74.52 428.696 75.8C425.776 77.08 422.476 77.72 418.796 77.72Z" fill="#252525"/>
<path d="M458.064 77V70.7L457.464 69.32V58.04C457.464 56.04 456.844 54.48 455.604 53.36C454.404 52.24 452.544 51.68 450.024 51.68C448.304 51.68 446.604 51.96 444.924 52.52C443.284 53.04 441.884 53.76 440.724 54.68L437.364 48.14C439.124 46.9 441.244 45.94 443.724 45.26C446.204 44.58 448.724 44.24 451.284 44.24C456.204 44.24 460.024 45.4 462.744 47.72C465.464 50.04 466.824 53.66 466.824 58.58V77H458.064ZM448.224 77.48C445.704 77.48 443.544 77.06 441.744 76.22C439.944 75.34 438.564 74.16 437.604 72.68C436.644 71.2 436.164 69.54 436.164 67.7C436.164 65.78 436.624 64.1 437.544 62.66C438.504 61.22 440.004 60.1 442.044 59.3C444.084 58.46 446.744 58.04 450.024 58.04H458.604V63.5H451.044C448.844 63.5 447.324 63.86 446.484 64.58C445.684 65.3 445.284 66.2 445.284 67.28C445.284 68.48 445.744 69.44 446.664 70.16C447.624 70.84 448.924 71.18 450.564 71.18C452.124 71.18 453.524 70.82 454.764 70.1C456.004 69.34 456.904 68.24 457.464 66.8L458.904 71.12C458.224 73.2 456.984 74.78 455.184 75.86C453.384 76.94 451.064 77.48 448.224 77.48Z" fill="#252525"/>
<path d="M484.895 77.48C481.095 77.48 478.135 76.52 476.015 74.6C473.895 72.64 472.835 69.74 472.835 65.9V37.58H482.195V65.78C482.195 67.14 482.555 68.2 483.275 68.96C483.995 69.68 484.975 70.04 486.215 70.04C487.695 70.04 488.955 69.64 489.995 68.84L492.515 75.44C491.555 76.12 490.395 76.64 489.035 77C487.715 77.32 486.335 77.48 484.895 77.48ZM467.855 52.64V45.44H490.235V52.64H467.855Z" fill="#252525"/>
<path d="M82.3 4.9L79.5 4.8L0 0L6.80005 104.6L7.19995 111.8L44.8 109.7L113.1 105.8L114.7 34.2L115.4 7V6.9L82.3 4.9Z" fill="#FF8C00"/>
<path d="M115.4 6.99999C107.6 10.6 98 16.1 86.9 24.3C86.9 24.3 93.3 21.8 99.7 20.2C99.7 20.2 102.8 18.8 68.5 49.1C68.5 49.1 70.2 47.5 80.5 48.2C80.5 48.2 75.4 51.7 65.1 62.2C64.8 62 64.5 61.7 64.2 61.6C62.7 60.9 61.1 60.5 59.4 60.6C57.8 60.7 56.2 61.2 54.7 62.1L53.9 62.6L54 62C54.2 59.4 53.4 57 51.8 55.1C51.4 54.6 50.9 54.1 50.4 53.7C54.6 43.8 64.1 27.5 83.5 18.5C83.5 18.5 70 20.3 66.1 25.5C66.1 25.5 71.9 13.7 82.4 4.99999L79.6 4.79999C69.7 11 57.4 21.8 49.2 40C49.2 40 57.7 29.4 60.7 29.8C60.7 29.8 52.5 41.5 49 52.9C47.8 52.3 46.5 52 45.2 51.9H45.1C44.6 51.9 44 51.9 43.5 51.9C43 51.9 42.4 52 41.9 52.2C38.2 53.1 35.3 56.1 34.7 60C34.7 60.2 34.7 60.4 34.6 60.6V61.1C32.8 59.7 30.6 59 28.3 59C28.3 59 25.3 59 23.7 60.1C23.4 60.3 23.1 60.4 22.9 60.6C19.6 62.9 17.2 67.4 18.9 72.8L22.2 81.4L6.69995 104.8L7.19995 112.1L44.8 110L50.4 99.1H51.8C55 99 60.2 98.2 63.3 97.3C66.7 96.3 69.1 93.5 69.9 90.2C70 89.8 70 89.3 70.1 88.8C76 86.7 81 85.8 81 85.8C78.8 87.4 76.2 90.9 76.2 90.9C87.8 83.7 112.2 89.3 112.2 89.3C97.3 82 89.9 82.5 89.9 82.5C94.2 79.6 104.9 79 104.9 79C88.4 76.1 76.4 82.1 70 86.6C70 86.4 70 86.2 69.9 86L69.8 85.7C69.4 83.7 68.3 81.8 66.8 80.5C66.3 80.1 65.7 79.7 65.1 79.4C64.9 79.3 64.8 79.2 64.6 79.2L65 79C66.7 77.9 68 76.4 68.8 74.6C69.7 72.5 69.8 70 69.1 67.7C68.9 66.9 68.5 66.3 68.2 65.7C81.5 56.7 99.5 46.2 113.3 44.9C113.3 44.9 108.3 41.9 91.6 41.4C91.6 41.4 98.5 36.2 114.8 34.6L115.4 6.99999Z" fill="white"/>
</svg>
