<svg width="116" height="113" viewBox="0 0 116 113" fill="none" xmlns="http://www.w3.org/2000/svg">
<path d="M82.8 4.9L80 4.8L0.5 0L7.30005 104.6L7.69995 111.8L45.3 109.7L113.6 105.8L115.2 34.2L115.9 7V6.9L82.8 4.9Z" fill="#FF8C00"/>
<path d="M115.9 6.99999C108.1 10.6 98.5 16.1 87.4 24.3C87.4 24.3 93.7999 21.8 100.2 20.2C100.2 20.2 103.3 18.8 69 49.1C69 49.1 70.7 47.5 81 48.2C81 48.2 75.9 51.7 65.6 62.2C65.3 62 65 61.7 64.7 61.6C63.2 60.9 61.6 60.5 59.9 60.6C58.3 60.7 56.7 61.2 55.2 62.1L54.4 62.6L54.5 62C54.7 59.4 53.9 57 52.3 55.1C51.9 54.6 51.4 54.1 50.9 53.7C55.1 43.8 64.6 27.5 84 18.5C84 18.5 70.5 20.3 66.6 25.5C66.6 25.5 72.4 13.7 82.9 4.99999L80.1 4.79999C70.2 11 57.9 21.8 49.7 40C49.7 40 58.2 29.4 61.2 29.8C61.2 29.8 53 41.5 49.5 52.9C48.3 52.3 47 52 45.7 51.9H45.6C45.1 51.9 44.5 51.9 44 51.9C43.5 51.9 42.9 52 42.4 52.2C38.7 53.1 35.8 56.1 35.2 60C35.2 60.2 35.2 60.4 35.1 60.6V61.1C33.3 59.7 31.1 59 28.8 59C28.8 59 25.8 59 24.2 60.1C23.9 60.3 23.6 60.4 23.4 60.6C20.1 62.9 17.7 67.4 19.4 72.8L22.7 81.4L7.19995 104.8L7.69995 112.1L45.3 110L50.9 99.1H52.3C55.5 99 60.7001 98.2 63.8 97.3C67.2001 96.3 69.6 93.5 70.4 90.2C70.5 89.8 70.5 89.3 70.6 88.8C76.5 86.7 81.5 85.8 81.5 85.8C79.3 87.4 76.7 90.9 76.7 90.9C88.2999 83.7 112.7 89.3 112.7 89.3C97.7999 82 90.4 82.5 90.4 82.5C94.7 79.6 105.4 79 105.4 79C88.9 76.1 76.9 82.1 70.5 86.6C70.5 86.4 70.5 86.2 70.4 86L70.3 85.7C69.9 83.7 68.8 81.8 67.3 80.5C66.8 80.1 66.2 79.7 65.6 79.4C65.4 79.3 65.3 79.2 65.1 79.2L65.5 79C67.2 77.9 68.5 76.4 69.3 74.6C70.2001 72.5 70.3 70 69.6 67.7C69.4 66.9 69 66.3 68.7 65.7C82 56.7 100 46.2 113.8 44.9C113.8 44.9 108.8 41.9 92.1 41.4C92.1 41.4 99 36.2 115.3 34.6L115.9 6.99999Z" fill="white"/>
</svg>
