<svg width="497" height="113" viewBox="0 0 497 113" fill="none" xmlns="http://www.w3.org/2000/svg">
<path d="M82.3 4.9L79.5 4.8L0 0L6.80005 104.6L7.19995 111.8L44.8 109.7L113.1 105.8L114.7 34.2L115.4 7V6.9L82.3 4.9Z" fill="#FFD100"/>
<path d="M115.4 6.99999C107.6 10.6 98 16.1 86.9 24.3C86.9 24.3 93.2999 21.8 99.7 20.2C99.7 20.2 102.8 18.8 68.5 49.1C68.5 49.1 70.2 47.5 80.5 48.2C80.5 48.2 75.4 51.7 65.1 62.2C64.8 62 64.5 61.7 64.2 61.6C62.7 60.9 61.1 60.5 59.4 60.6C57.8 60.7 56.2 61.2 54.7 62.1L53.9 62.6L54 62C54.2 59.4 53.4 57 51.8 55.1C51.4 54.6 50.9 54.1 50.4 53.7C54.6 43.8 64.1 27.5 83.5 18.5C83.5 18.5 70 20.3 66.1 25.5C66.1 25.5 71.9 13.7 82.4 4.99999L79.6 4.79999C69.7 11 57.4 21.8 49.2 40C49.2 40 57.7 29.4 60.7 29.8C60.7 29.8 52.5 41.5 49 52.9C47.8 52.3 46.5 52 45.2 51.9H45.1C44.6 51.9 44 51.9 43.5 51.9C43 51.9 42.4 52 41.9 52.2C38.2 53.1 35.3 56.1 34.7 60C34.7 60.2 34.7 60.4 34.6 60.6V61.1C32.8 59.7 30.6 59 28.3 59C28.3 59 25.3 59 23.7 60.1C23.4 60.3 23.1 60.4 22.9 60.6C19.6 62.9 17.2 67.4 18.9 72.8L22.2 81.4L6.69995 104.8L7.19995 112.1L44.8 110L50.4 99.1H51.8C55 99 60.2001 98.2 63.3 97.3C66.7001 96.3 69.1 93.5 69.9 90.2C70 89.8 70 89.3 70.1 88.8C76 86.7 81 85.8 81 85.8C78.8 87.4 76.2 90.9 76.2 90.9C87.7999 83.7 112.2 89.3 112.2 89.3C97.2999 82 89.9 82.5 89.9 82.5C94.2 79.6 104.9 79 104.9 79C88.4 76.1 76.4 82.1 70 86.6C70 86.4 70 86.2 69.9 86L69.8 85.7C69.4 83.7 68.3 81.8 66.8 80.5C66.3 80.1 65.7 79.7 65.1 79.4C64.9 79.3 64.8 79.2 64.6 79.2L65 79C66.7 77.9 68 76.4 68.8 74.6C69.7001 72.5 69.8 70 69.1 67.7C68.9 66.9 68.5 66.3 68.2 65.7C81.5 56.7 99.5 46.2 113.3 44.9C113.3 44.9 108.3 41.9 91.6 41.4C91.6 41.4 98.5 36.2 114.8 34.6L115.4 6.99999Z" fill="white"/>
<path d="M141.656 34.029H153.283L166.989 62.981L166.219 34.029H176.46V34.876C176.203 35.184 176.024 35.5177 175.921 35.877C175.87 36.2363 175.844 36.8523 175.844 37.725V82H165.218L151.281 51.123V82H141.656V34.029Z" fill="#252525"/>
<path d="M187.933 82.924C184.032 82.924 180.977 82 178.77 80.152C176.563 78.2527 175.459 75.763 175.459 72.683C175.459 70.7323 175.87 68.9357 176.691 67.293C177.512 65.599 178.796 64.136 180.541 62.904C182.286 61.6207 184.519 60.6197 187.24 59.901C189.961 59.1823 193.22 58.823 197.019 58.823C197.173 58.823 197.455 58.823 197.866 58.823C198.277 58.823 198.739 58.823 199.252 58.823C199.765 58.823 200.202 58.823 200.561 58.823L200.869 66.061C200.561 66.061 200.125 66.061 199.56 66.061C198.995 66.061 198.405 66.0867 197.789 66.138C197.224 66.138 196.788 66.138 196.48 66.138C194.273 66.138 192.502 66.292 191.167 66.6C189.832 66.8567 188.806 67.2417 188.087 67.755C187.42 68.217 186.958 68.756 186.701 69.372C186.444 69.9367 186.316 70.5013 186.316 71.066C186.316 71.682 186.419 72.221 186.624 72.683C186.829 73.145 187.112 73.5043 187.471 73.761C187.83 74.0177 188.267 74.223 188.78 74.377C189.293 74.4797 189.832 74.531 190.397 74.531C191.629 74.531 192.681 74.3257 193.554 73.915C194.427 73.5043 195.145 72.837 195.71 71.913C196.326 70.9377 196.762 69.7057 197.019 68.217C197.327 66.7283 197.481 64.906 197.481 62.75C197.481 60.132 197.224 58.13 196.711 56.744C196.249 55.358 195.556 54.434 194.632 53.972C193.759 53.4587 192.681 53.202 191.398 53.202C189.807 53.202 188.344 53.433 187.009 53.895C185.674 54.3057 184.263 55.281 182.774 56.821L176.614 50.507C178.924 48.4023 181.388 46.9393 184.006 46.118C186.675 45.2967 189.268 44.886 191.783 44.886C193.99 44.886 196.069 45.1427 198.02 45.656C200.022 46.118 201.793 46.9137 203.333 48.043C204.924 49.1723 206.156 50.738 207.029 52.74C207.953 54.6907 208.415 57.1547 208.415 60.132V82H197.404V79.151C196.737 79.767 196.069 80.3317 195.402 80.845C194.786 81.307 194.093 81.692 193.323 82C192.604 82.308 191.809 82.539 190.936 82.693C190.063 82.847 189.062 82.924 187.933 82.924Z" fill="#252525"/>
<path d="M223.122 82.924C221.633 82.924 220.222 82.7443 218.887 82.385C217.604 82.0257 216.423 81.461 215.345 80.691C214.318 79.921 213.42 78.9457 212.65 77.765C211.88 76.5843 211.29 75.1727 210.879 73.53C210.468 71.836 210.263 69.911 210.263 67.755V45.733H221.197V67.755C221.197 68.9357 221.274 69.9367 221.428 70.758C221.633 71.5793 221.916 72.2723 222.275 72.837C222.634 73.3503 223.045 73.7353 223.507 73.992C224.02 74.1973 224.559 74.3 225.124 74.3C226.099 74.3 226.946 74.146 227.665 73.838C228.435 73.53 229.051 73.068 229.513 72.452C230.026 71.7847 230.386 70.989 230.591 70.065C230.848 69.141 230.976 68.063 230.976 66.831V45.733H241.987V76.148C241.987 77.38 242.013 78.458 242.064 79.382C242.167 80.2547 242.398 81.1273 242.757 82H232.978C232.721 81.538 232.542 81.076 232.439 80.614C232.336 80.152 232.259 79.69 232.208 79.228C232.208 78.766 232.208 78.304 232.208 77.842C231.695 78.7147 231.079 79.4847 230.36 80.152C229.693 80.768 228.948 81.2813 228.127 81.692C227.357 82.1027 226.536 82.4107 225.663 82.616C224.842 82.8213 223.995 82.924 223.122 82.924Z" fill="#252525"/>
<path d="M259.081 96.091C256.514 96.091 254.204 95.8343 252.151 95.321C250.149 94.859 248.455 94.1917 247.069 93.319C245.683 92.4463 244.631 91.4197 243.912 90.239C243.193 89.0583 242.834 87.8007 242.834 86.466C242.834 85.3367 243.142 84.2587 243.758 83.232C244.374 82.2053 245.221 81.2813 246.299 80.46C247.377 79.5873 248.558 78.8943 249.841 78.381L254.846 80.152C254.281 80.614 253.64 81.076 252.921 81.538C252.254 81.9487 251.689 82.385 251.227 82.847C250.765 83.3603 250.534 83.9507 250.534 84.618C250.534 85.1827 250.791 85.6447 251.304 86.004C251.817 86.4147 252.51 86.7227 253.383 86.928C254.307 87.1847 255.334 87.3643 256.463 87.467C257.644 87.5697 258.901 87.621 260.236 87.621C261.93 87.621 263.393 87.4927 264.625 87.236C265.908 86.9793 266.884 86.5943 267.551 86.081C268.27 85.5677 268.629 84.9773 268.629 84.31C268.629 83.7453 268.424 83.309 268.013 83.001C267.602 82.693 266.935 82.462 266.011 82.308C265.087 82.2053 263.881 82.154 262.392 82.154C260.801 82.154 259.158 82.1027 257.464 82C255.821 81.846 254.23 81.5893 252.69 81.23C251.15 80.8707 249.738 80.383 248.455 79.767C247.223 79.151 246.248 78.381 245.529 77.457C244.81 76.4817 244.451 75.301 244.451 73.915C244.451 72.0157 245.041 70.45 246.222 69.218C247.403 67.9347 248.763 66.831 250.303 65.907L255.154 68.294C254.692 68.7047 254.23 69.0383 253.768 69.295C253.357 69.5003 252.998 69.7313 252.69 69.988C252.433 70.1933 252.305 70.5527 252.305 71.066C252.305 71.528 252.767 71.9387 253.691 72.298C254.615 72.6573 256.052 72.9397 258.003 73.145C259.954 73.299 262.469 73.376 265.549 73.376C267.551 73.376 269.271 73.6583 270.708 74.223C272.197 74.7363 273.403 75.4807 274.327 76.456C275.302 77.38 276.021 78.4323 276.483 79.613C276.945 80.7937 277.176 82.0513 277.176 83.386C277.176 84.9773 276.791 86.5173 276.021 88.006C275.302 89.546 274.173 90.9063 272.633 92.087C271.144 93.319 269.271 94.2943 267.012 95.013C264.753 95.7317 262.11 96.091 259.081 96.091ZM259.004 69.834C256.489 69.834 254.153 69.295 251.997 68.217C249.892 67.139 248.198 65.676 246.915 63.828C245.683 61.98 245.067 59.8753 245.067 57.514C245.067 55.1527 245.683 53.0223 246.915 51.123C248.198 49.2237 249.892 47.7093 251.997 46.58C254.153 45.4507 256.489 44.886 259.004 44.886C261.571 44.886 263.906 45.4507 266.011 46.58C268.116 47.7093 269.784 49.2237 271.016 51.123C272.299 53.0223 272.941 55.1527 272.941 57.514C272.941 59.8753 272.299 61.98 271.016 63.828C269.784 65.676 268.116 67.139 266.011 68.217C263.906 69.295 261.571 69.834 259.004 69.834ZM258.927 62.365C259.851 62.365 260.672 62.1853 261.391 61.826C262.11 61.4153 262.674 60.8507 263.085 60.132C263.547 59.362 263.778 58.4893 263.778 57.514C263.778 56.5387 263.547 55.7173 263.085 55.05C262.674 54.3827 262.084 53.8693 261.314 53.51C260.595 53.0993 259.8 52.894 258.927 52.894C258.208 52.894 257.49 53.0993 256.771 53.51C256.052 53.9207 255.436 54.4853 254.923 55.204C254.461 55.8713 254.23 56.6413 254.23 57.514C254.23 58.3867 254.435 59.208 254.846 59.978C255.308 60.6967 255.898 61.287 256.617 61.749C257.336 62.1597 258.106 62.365 258.927 62.365ZM270.708 52.894L266.627 47.735C268.064 46.811 269.784 46.0667 271.786 45.502C273.788 44.9373 275.841 44.732 277.946 44.886L278.87 51.816C277.433 51.4567 275.97 51.4053 274.481 51.662C272.992 51.8673 271.735 52.278 270.708 52.894Z" fill="#252525"/>
<path d="M278.331 30.025H289.958V30.872C289.701 31.18 289.522 31.5137 289.419 31.873C289.368 32.2323 289.342 32.8483 289.342 33.721V49.429C290.163 48.2997 291.113 47.427 292.191 46.811C293.269 46.1437 294.398 45.656 295.579 45.348C296.811 45.04 297.992 44.886 299.121 44.886C301.585 44.886 303.69 45.425 305.435 46.503C307.232 47.5297 308.618 49.1723 309.593 51.431C310.568 53.6897 311.056 56.6157 311.056 60.209V82H300.122V60.286C300.122 58.438 299.968 56.975 299.66 55.897C299.352 54.7677 298.89 53.972 298.274 53.51C297.709 53.048 296.965 52.817 296.041 52.817C295.168 52.817 294.373 52.9453 293.654 53.202C292.987 53.4587 292.371 53.818 291.806 54.28C291.293 54.742 290.831 55.3323 290.42 56.051C290.061 56.7183 289.778 57.4883 289.573 58.361C289.419 59.2337 289.342 60.1833 289.342 61.21V82H278.331V30.025Z" fill="#252525"/>
<path d="M331.923 82.924C330.024 82.924 328.278 82.616 326.687 82C325.096 81.4353 323.735 80.46 322.606 79.074C321.477 77.6367 320.63 75.686 320.065 73.222C319.5 70.758 319.295 67.6267 319.449 63.828L320.527 37.648L331.615 36.185L332.308 36.108L332.385 36.955C332.18 37.3143 331.974 37.6737 331.769 38.033C331.564 38.3923 331.435 39.0083 331.384 39.881L330.46 51.739H330.922L330.306 63.289C330.152 66.215 330.255 68.4993 330.614 70.142C331.025 71.7333 331.589 72.837 332.308 73.453C333.078 74.069 333.874 74.377 334.695 74.377C336.286 74.377 337.724 74.0433 339.007 73.376C340.342 72.7087 341.497 71.9643 342.472 71.143L344.32 78.766C342.575 80.0493 340.675 81.076 338.622 81.846C336.62 82.5647 334.387 82.924 331.923 82.924ZM312.827 45.733H341.933L341.779 54.203H312.673L312.827 45.733Z" fill="#252525"/>
<path d="M352.405 95.629C350.66 95.629 349.12 95.321 347.785 94.705C346.45 94.089 345.039 93.2163 343.55 92.087L347.015 84.618L347.246 84.002L348.016 84.31C348.221 84.6693 348.427 85.0543 348.632 85.465C348.837 85.8757 349.274 86.3377 349.941 86.851C350.249 87.0563 350.583 87.2103 350.942 87.313C351.353 87.4157 351.763 87.467 352.174 87.467C352.995 87.467 353.714 87.2103 354.33 86.697C354.946 86.235 355.536 85.4907 356.101 84.464C356.666 83.4373 357.256 82.077 357.872 80.383L366.342 57.591C367.112 55.4863 367.702 53.51 368.113 51.662C368.524 49.7627 368.729 47.7863 368.729 45.733H378.508C378.457 48.043 377.943 50.5327 376.968 53.202C376.044 55.82 375.146 58.284 374.273 60.594L365.341 84.541C363.801 88.6477 361.979 91.5223 359.874 93.165C357.769 94.8077 355.28 95.629 352.405 95.629ZM344.397 45.733H355.1L365.033 71.759L359.104 82.693L344.397 45.733Z" fill="#252525"/>
<path d="M414.715 82.924C412.097 82.924 409.607 82.4363 407.246 81.461C404.936 80.4857 402.883 78.997 401.086 76.995C399.289 74.993 397.878 72.452 396.851 69.372C395.876 66.2407 395.388 62.5447 395.388 58.284C395.388 54.5367 395.773 51.2513 396.543 48.428C397.364 45.6047 398.442 43.2177 399.777 41.267C401.163 39.3163 402.703 37.7507 404.397 36.57C406.142 35.338 407.939 34.4653 409.787 33.952C411.686 33.3873 413.56 33.105 415.408 33.105C419.155 33.105 422.338 33.9007 424.956 35.492C427.574 37.0833 429.602 39.3933 431.039 42.422L425.033 47.812L424.494 48.274L423.955 47.658C423.955 47.2473 423.904 46.8367 423.801 46.426C423.698 46.0153 423.416 45.4763 422.954 44.809C421.979 43.6797 420.926 42.9353 419.797 42.576C418.668 42.1653 417.513 41.96 416.332 41.96C415.203 41.96 414.048 42.2937 412.867 42.961C411.686 43.577 410.583 44.5523 409.556 45.887C408.581 47.1703 407.785 48.813 407.169 50.815C406.553 52.817 406.245 55.1783 406.245 57.899C406.245 60.517 406.45 62.827 406.861 64.829C407.323 66.831 407.939 68.525 408.709 69.911C409.53 71.2457 410.48 72.2723 411.558 72.991C412.687 73.6583 413.919 73.992 415.254 73.992C416.486 73.992 417.564 73.8637 418.488 73.607C419.412 73.3503 420.259 72.8627 421.029 72.144C421.799 71.4253 422.543 70.4243 423.262 69.141L430.654 74.762C428.703 77.8933 426.419 80.0493 423.801 81.23C421.183 82.3593 418.154 82.924 414.715 82.924Z" fill="#252525"/>
<path d="M441.973 82.924C438.072 82.924 435.017 82 432.81 80.152C430.603 78.2527 429.499 75.763 429.499 72.683C429.499 70.7323 429.91 68.9357 430.731 67.293C431.552 65.599 432.836 64.136 434.581 62.904C436.326 61.6207 438.559 60.6197 441.28 59.901C444.001 59.1823 447.26 58.823 451.059 58.823C451.213 58.823 451.495 58.823 451.906 58.823C452.317 58.823 452.779 58.823 453.292 58.823C453.805 58.823 454.242 58.823 454.601 58.823L454.909 66.061C454.601 66.061 454.165 66.061 453.6 66.061C453.035 66.061 452.445 66.0867 451.829 66.138C451.264 66.138 450.828 66.138 450.52 66.138C448.313 66.138 446.542 66.292 445.207 66.6C443.872 66.8567 442.846 67.2417 442.127 67.755C441.46 68.217 440.998 68.756 440.741 69.372C440.484 69.9367 440.356 70.5013 440.356 71.066C440.356 71.682 440.459 72.221 440.664 72.683C440.869 73.145 441.152 73.5043 441.511 73.761C441.87 74.0177 442.307 74.223 442.82 74.377C443.333 74.4797 443.872 74.531 444.437 74.531C445.669 74.531 446.721 74.3257 447.594 73.915C448.467 73.5043 449.185 72.837 449.75 71.913C450.366 70.9377 450.802 69.7057 451.059 68.217C451.367 66.7283 451.521 64.906 451.521 62.75C451.521 60.132 451.264 58.13 450.751 56.744C450.289 55.358 449.596 54.434 448.672 53.972C447.799 53.4587 446.721 53.202 445.438 53.202C443.847 53.202 442.384 53.433 441.049 53.895C439.714 54.3057 438.303 55.281 436.814 56.821L430.654 50.507C432.964 48.4023 435.428 46.9393 438.046 46.118C440.715 45.2967 443.308 44.886 445.823 44.886C448.03 44.886 450.109 45.1427 452.06 45.656C454.062 46.118 455.833 46.9137 457.373 48.043C458.964 49.1723 460.196 50.738 461.069 52.74C461.993 54.6907 462.455 57.1547 462.455 60.132V82H451.444V79.151C450.777 79.767 450.109 80.3317 449.442 80.845C448.826 81.307 448.133 81.692 447.363 82C446.644 82.308 445.849 82.539 444.976 82.693C444.103 82.847 443.102 82.924 441.973 82.924Z" fill="#252525"/>
<path d="M484.323 82.924C482.424 82.924 480.678 82.616 479.087 82C477.496 81.4353 476.135 80.46 475.006 79.074C473.877 77.6367 473.03 75.686 472.465 73.222C471.9 70.758 471.695 67.6267 471.849 63.828L472.927 37.648L484.015 36.185L484.708 36.108L484.785 36.955C484.58 37.3143 484.374 37.6737 484.169 38.033C483.964 38.3923 483.835 39.0083 483.784 39.881L482.86 51.739H483.322L482.706 63.289C482.552 66.215 482.655 68.4993 483.014 70.142C483.425 71.7333 483.989 72.837 484.708 73.453C485.478 74.069 486.274 74.377 487.095 74.377C488.686 74.377 490.124 74.0433 491.407 73.376C492.742 72.7087 493.897 71.9643 494.872 71.143L496.72 78.766C494.975 80.0493 493.075 81.076 491.022 81.846C489.02 82.5647 486.787 82.924 484.323 82.924ZM465.227 45.733H494.333L494.179 54.203H465.073L465.227 45.733Z" fill="#252525"/>
</svg>
