<?xml version="1.0" encoding="UTF-8"?>
<svg width="1200pt" height="1200pt" version="1.1" viewBox="0 0 1200 1200" xmlns="http://www.w3.org/2000/svg">
 <path d="m571.99 409.61c3.1484-20.477 22.352-34.426 42.789-31.352 59.398 9.1484 111.68 40.914 147.19 89.398 35.512 48.488 50.023 107.89 40.836 167.29-2.8516 18.523-18.824 31.762-37.012 31.762-1.9141 0-3.8633-0.14844-5.7734-0.44922-20.438-3.1484-34.5-22.312-31.312-42.789 6.1133-39.602-3.5625-79.199-27.262-111.52-23.664-32.324-58.539-53.477-98.102-59.586-20.477-3.1484-34.5-22.312-31.352-42.789zm65.664-179.59c-20.551-3.1484-39.637 10.875-42.789 31.352-3.1484 20.477 10.875 39.637 31.352 42.789 79.164 12.227 148.88 54.562 196.24 119.18 47.363 64.648 66.711 143.85 54.488 223.05-3.1484 20.477 10.875 39.637 31.352 42.789 1.9492 0.30078 3.8633 0.44922 5.7734 0.44922 18.188 0 34.164-13.273 37.012-31.801 15.262-99-8.9258-198-68.102-278.81-59.176-80.812-146.32-133.73-245.32-148.99zm366.34 60.336c-82.875-113.14-204.86-187.2-343.46-208.57-20.398-3.0742-39.602 10.875-42.789 31.352s10.875 39.637 31.352 42.789c118.76 18.336 223.35 81.824 294.38 178.8 71.023 96.977 100.05 215.77 81.711 334.57-3.1484 20.438 10.875 39.602 31.352 42.789 1.9141 0.30078 3.8633 0.44922 5.7734 0.44922 18.188 0 34.164-13.273 37.012-31.801 21.375-138.6-12.488-277.2-95.324-390.34zm-237.3 516.68c-15.637-25.688-40.312-43.762-69.523-50.852-29.211-7.0859-59.398-2.3984-85.086 13.199l-48.262 29.398c-14.738 8.9609-33.301 7.0508-45.188-4.6484-38.438-37.914-72.148-80.438-100.16-126.45-28.051-46.086-50.363-95.625-66.336-147.26-4.8008-15.523 2.25-33.188 16.727-42.039l48.262-29.363c52.988-32.25 69.863-101.59 37.574-154.57l-58.461-96.074c-15.637-25.688-40.312-43.762-69.523-50.852-29.25-7.125-59.438-2.3984-85.086 13.238l-93.113 56.664c-33.863 20.586-54.074 56.324-54.074 95.625 0 116.4 22.949 292.69 131.85 471.6 49.125 80.738 160.76 231.38 356.48 332.85 16.988 8.8125 35.289 13.199 53.398 13.199 20.25 0 40.312-5.4766 58.199-16.352l93.148-56.699c25.688-15.637 43.727-40.312 50.812-69.488 7.0859-29.211 2.3984-59.398-13.238-85.086l-58.461-96.074z"/>
</svg>
