<?xml version="1.0" encoding="UTF-8"?>
<svg width="1200pt" height="1200pt" version="1.1" viewBox="0 0 1200 1200" xmlns="http://www.w3.org/2000/svg">
 <path d="m132.56 202.43c16.312-9.2266 34.875-14.926 54.938-14.926h825c20.062 0 38.625 5.6992 54.977 14.961l-444.94 390.07c-13.238 9.9375-31.762 9.9375-42.824 1.8008zm975.98 755.29c10.199-16.949 16.461-36.562 16.461-57.711v-600c0-14.586-3-28.426-8.0625-41.25l-299.4 262.43 291.04 436.54zm-1025.4-699c-5.1016 12.824-8.1016 26.664-8.1016 41.289v600c0 21.188 6.2266 40.801 16.461 57.711l291.07-436.61zm677.51 312.34-90.898 79.648c-21.262 16.051-46.086 23.926-70.5 23.926-23.738 0-47.176-7.4258-66.711-22.125l-93.074-81.562-289.69 434.55c11.852 4.2734 24.449 7.0117 37.762 7.0117h825c13.312 0 25.914-2.7383 37.762-7.0117l-289.65-434.48z"/>
</svg>
