<?xml version="1.0" encoding="UTF-8"?>
<svg width="1200pt" height="1200pt" version="1.1" viewBox="0 0 1200 1200" xmlns="http://www.w3.org/2000/svg">
 <path d="m731.25 431.25c0 72.375-58.875 131.25-131.25 131.25s-131.25-58.875-131.25-131.25 58.875-131.25 131.25-131.25 131.25 58.875 131.25 131.25zm281.25 60.336c0 163.88-201.86 461.74-322.16 624.71-21.449 29.102-54.414 45.824-90.336 45.824-35.926 0-68.887-16.688-90.336-45.824-120.3-162.98-322.16-460.88-322.16-624.71 0-229.5 185.06-416.25 412.5-416.25s412.5 186.71 412.5 416.25zm-206.25-60.336c0-113.74-92.551-206.25-206.25-206.25s-206.25 92.512-206.25 206.25 92.551 206.25 206.25 206.25 206.25-92.512 206.25-206.25z"/>
</svg>
